<svg width="139" height="31" viewBox="0 0 139 31" fill="none" xmlns="http://www.w3.org/2000/svg">
<path d="M17.7273 8C17.4773 7.23485 17.1477 6.54924 16.7386 5.94318C16.3371 5.32954 15.8561 4.80682 15.2955 4.375C14.7424 3.94318 14.1136 3.61364 13.4091 3.38636C12.7045 3.15909 11.9318 3.04545 11.0909 3.04545C9.71212 3.04545 8.45833 3.40151 7.32955 4.11364C6.20076 4.82576 5.30303 5.875 4.63636 7.26136C3.9697 8.64773 3.63636 10.3485 3.63636 12.3636C3.63636 14.3788 3.97349 16.0795 4.64773 17.4659C5.32197 18.8523 6.23485 19.9015 7.38636 20.6136C8.53788 21.3258 9.83333 21.6818 11.2727 21.6818C12.6061 21.6818 13.7803 21.3977 14.7955 20.8295C15.8182 20.2538 16.6136 19.4432 17.1818 18.3977C17.7576 17.3447 18.0455 16.1061 18.0455 14.6818L18.9091 14.8636H11.9091V12.3636H20.7727V14.8636C20.7727 16.7803 20.3636 18.447 19.5455 19.8636C18.7348 21.2803 17.6136 22.3788 16.1818 23.1591C14.7576 23.9318 13.1212 24.3182 11.2727 24.3182C9.21212 24.3182 7.40152 23.8333 5.84091 22.8636C4.28788 21.8939 3.07576 20.5152 2.20455 18.7273C1.34091 16.9394 0.909091 14.8182 0.909091 12.3636C0.909091 10.5227 1.1553 8.86742 1.64773 7.39773C2.14773 5.92045 2.85227 4.66288 3.76136 3.625C4.67045 2.58712 5.74621 1.79167 6.98864 1.23864C8.23106 0.685605 9.59848 0.40909 11.0909 0.40909C12.3182 0.40909 13.4621 0.594696 14.5227 0.965908C15.5909 1.32954 16.5417 1.84848 17.375 2.52273C18.2159 3.18939 18.9167 3.98864 19.4773 4.92045C20.0379 5.8447 20.4242 6.87121 20.6364 8H17.7273ZM26.9631 30.5455C26.5085 30.5455 26.1032 30.5076 25.7472 30.4318C25.3911 30.3636 25.1449 30.2955 25.0085 30.2273L25.6903 27.8636C26.3419 28.0303 26.9176 28.0909 27.4176 28.0455C27.9176 28 28.3608 27.7765 28.7472 27.375C29.1411 26.9811 29.5009 26.3409 29.8267 25.4545L30.3267 24.0909L23.8722 6.54545H26.7812L31.5994 20.4545H31.7812L36.5994 6.54545H39.5085L32.0994 26.5455C31.7661 27.447 31.3532 28.1932 30.8608 28.7841C30.3684 29.3826 29.7964 29.8258 29.1449 30.1136C28.5009 30.4015 27.7737 30.5455 26.9631 30.5455ZM43.0483 24V6.54545H45.6392V9.27273H45.8665C46.2301 8.34091 46.8172 7.61742 47.6278 7.10227C48.4384 6.57955 49.4119 6.31818 50.5483 6.31818C51.6998 6.31818 52.6581 6.57955 53.4233 7.10227C54.196 7.61742 54.7983 8.34091 55.2301 9.27273H55.4119C55.8589 8.37121 56.5294 7.6553 57.4233 7.125C58.3172 6.58712 59.3892 6.31818 60.6392 6.31818C62.1998 6.31818 63.4763 6.80682 64.4688 7.78409C65.4612 8.75379 65.9574 10.2652 65.9574 12.3182V24H63.2756V12.3182C63.2756 11.0303 62.9233 10.1098 62.2188 9.55682C61.5142 9.00379 60.6847 8.72727 59.7301 8.72727C58.5028 8.72727 57.5521 9.09848 56.8778 9.84091C56.2036 10.5758 55.8665 11.5076 55.8665 12.6364V24H53.1392V12.0455C53.1392 11.053 52.8172 10.2538 52.1733 9.64773C51.5294 9.03409 50.6998 8.72727 49.6847 8.72727C48.9877 8.72727 48.3362 8.91288 47.7301 9.28409C47.1316 9.6553 46.6468 10.1705 46.2756 10.8295C45.9119 11.4811 45.7301 12.2348 45.7301 13.0909V24H43.0483Z" fill="#8A8A8A"/>
<path d="M71.2244 24V0.727272H79.0881C80.9138 0.727272 82.4063 1.05682 83.5653 1.71591C84.732 2.36742 85.5956 3.25 86.1562 4.36364C86.7169 5.47727 86.9972 6.7197 86.9972 8.09091C86.9972 9.46212 86.7169 10.7083 86.1562 11.8295C85.6032 12.9508 84.7472 13.8447 83.5881 14.5114C82.429 15.1705 80.9441 15.5 79.1335 15.5H73.4972V13H79.0426C80.2926 13 81.2964 12.7841 82.054 12.3523C82.8116 11.9205 83.3608 11.3371 83.7017 10.6023C84.0502 9.85985 84.2244 9.02273 84.2244 8.09091C84.2244 7.15909 84.0502 6.32576 83.7017 5.59091C83.3608 4.85606 82.8078 4.2803 82.0426 3.86364C81.2775 3.43939 80.2623 3.22727 78.9972 3.22727H74.0426V24H71.2244ZM96.3097 24.4091C95.2036 24.4091 94.1998 24.2008 93.2983 23.7841C92.3968 23.3598 91.6809 22.75 91.1506 21.9545C90.6203 21.1515 90.3551 20.1818 90.3551 19.0455C90.3551 18.0455 90.5521 17.2348 90.946 16.6136C91.34 15.9848 91.8665 15.4924 92.5256 15.1364C93.1847 14.7803 93.9119 14.5152 94.7074 14.3409C95.5104 14.1591 96.3172 14.0152 97.1278 13.9091C98.1884 13.7727 99.0483 13.6705 99.7074 13.6023C100.374 13.5265 100.859 13.4015 101.162 13.2273C101.473 13.053 101.628 12.75 101.628 12.3182V12.2273C101.628 11.1061 101.321 10.2348 100.707 9.61364C100.101 8.99242 99.1809 8.68182 97.946 8.68182C96.6657 8.68182 95.6619 8.96212 94.9347 9.52273C94.2074 10.0833 93.696 10.6818 93.4006 11.3182L90.8551 10.4091C91.3097 9.34848 91.9157 8.52273 92.6733 7.93182C93.4384 7.33333 94.2718 6.91667 95.1733 6.68182C96.0824 6.43939 96.9763 6.31818 97.8551 6.31818C98.4157 6.31818 99.0597 6.38636 99.7869 6.52273C100.522 6.65151 101.23 6.92045 101.912 7.32954C102.601 7.73864 103.173 8.35606 103.628 9.18182C104.082 10.0076 104.31 11.1136 104.31 12.5V24H101.628V21.6364H101.491C101.31 22.0152 101.007 22.4205 100.582 22.8523C100.158 23.2841 99.5938 23.6515 98.8892 23.9545C98.1847 24.2576 97.3248 24.4091 96.3097 24.4091ZM96.7188 22C97.7794 22 98.6733 21.7917 99.4006 21.375C100.135 20.9583 100.688 20.4205 101.06 19.7614C101.438 19.1023 101.628 18.4091 101.628 17.6818V15.2273C101.514 15.3636 101.264 15.4886 100.878 15.6023C100.499 15.7083 100.06 15.803 99.5597 15.8864C99.0672 15.9621 98.5862 16.0303 98.1165 16.0909C97.6544 16.1439 97.2794 16.1894 96.9915 16.2273C96.2945 16.3182 95.643 16.4659 95.0369 16.6705C94.4384 16.8674 93.9536 17.1667 93.5824 17.5682C93.2188 17.9621 93.0369 18.5 93.0369 19.1818C93.0369 20.1136 93.3816 20.8182 94.071 21.2955C94.768 21.7652 95.6506 22 96.7188 22ZM121.568 10.4545L119.159 11.1364C119.008 10.7348 118.784 10.3447 118.489 9.96591C118.201 9.57955 117.807 9.26136 117.307 9.01136C116.807 8.76136 116.167 8.63636 115.386 8.63636C114.318 8.63636 113.428 8.88258 112.716 9.375C112.011 9.85985 111.659 10.4773 111.659 11.2273C111.659 11.8939 111.902 12.4205 112.386 12.8068C112.871 13.1932 113.629 13.5152 114.659 13.7727L117.25 14.4091C118.811 14.7879 119.973 15.3674 120.739 16.1477C121.504 16.9205 121.886 17.9167 121.886 19.1364C121.886 20.1364 121.598 21.0303 121.023 21.8182C120.455 22.6061 119.659 23.2273 118.636 23.6818C117.614 24.1364 116.424 24.3636 115.068 24.3636C113.288 24.3636 111.814 23.9773 110.648 23.2045C109.481 22.4318 108.742 21.303 108.432 19.8182L110.977 19.1818C111.22 20.1212 111.678 20.8258 112.352 21.2955C113.034 21.7652 113.924 22 115.023 22C116.273 22 117.265 21.7348 118 21.2045C118.742 20.6667 119.114 20.0227 119.114 19.2727C119.114 18.6667 118.902 18.1591 118.477 17.75C118.053 17.3333 117.402 17.0227 116.523 16.8182L113.614 16.1364C112.015 15.7576 110.841 15.1705 110.091 14.375C109.348 13.572 108.977 12.5682 108.977 11.3636C108.977 10.3788 109.254 9.50758 109.807 8.75C110.367 7.99242 111.129 7.39773 112.091 6.96591C113.061 6.53409 114.159 6.31818 115.386 6.31818C117.114 6.31818 118.47 6.69697 119.455 7.45454C120.447 8.21212 121.152 9.21212 121.568 10.4545ZM138.287 10.4545L135.878 11.1364C135.726 10.7348 135.503 10.3447 135.207 9.96591C134.92 9.57955 134.526 9.26136 134.026 9.01136C133.526 8.76136 132.885 8.63636 132.105 8.63636C131.037 8.63636 130.147 8.88258 129.435 9.375C128.73 9.85985 128.378 10.4773 128.378 11.2273C128.378 11.8939 128.62 12.4205 129.105 12.8068C129.59 13.1932 130.348 13.5152 131.378 13.7727L133.969 14.4091C135.529 14.7879 136.692 15.3674 137.457 16.1477C138.223 16.9205 138.605 17.9167 138.605 19.1364C138.605 20.1364 138.317 21.0303 137.741 21.8182C137.173 22.6061 136.378 23.2273 135.355 23.6818C134.332 24.1364 133.143 24.3636 131.787 24.3636C130.007 24.3636 128.533 23.9773 127.366 23.2045C126.2 22.4318 125.461 21.303 125.151 19.8182L127.696 19.1818C127.938 20.1212 128.397 20.8258 129.071 21.2955C129.753 21.7652 130.643 22 131.741 22C132.991 22 133.984 21.7348 134.719 21.2045C135.461 20.6667 135.832 20.0227 135.832 19.2727C135.832 18.6667 135.62 18.1591 135.196 17.75C134.772 17.3333 134.12 17.0227 133.241 16.8182L130.332 16.1364C128.734 15.7576 127.56 15.1705 126.81 14.375C126.067 13.572 125.696 12.5682 125.696 11.3636C125.696 10.3788 125.973 9.50758 126.526 8.75C127.086 7.99242 127.848 7.39773 128.81 6.96591C129.779 6.53409 130.878 6.31818 132.105 6.31818C133.832 6.31818 135.188 6.69697 136.173 7.45454C137.166 8.21212 137.87 9.21212 138.287 10.4545Z" fill="#DBC400"/>
</svg>
